<?xml version="1.0" encoding="UTF-8"?>
<svg width="64px" height="64px" viewBox="0 0 64 64" version="1.1" xmlns="http://www.w3.org/2000/svg" xmlns:xlink="http://www.w3.org/1999/xlink">
    <!-- Generator: sketchtool 59.1 (101010) - https://sketch.com -->
    <title>8E7E12B0-6106-4764-83F7-96C8BC76C905</title>
    <desc>Created with sketchtool.</desc>
    <g id="01_LOG" stroke="none" stroke-width="1" fill="none" fill-rule="evenodd">
        <g id="01_RES_9a" transform="translate(-669.000000, -145.000000)" fill="#16C98D" fill-rule="nonzero">
            <g id="check-circle" transform="translate(669.000000, 145.000000)">
                <path d="M32,0 C14.3268387,0 0,14.3268387 0,32 C0,49.6731613 14.3268387,64 32,64 C49.6731613,64 64,49.6731613 64,32 C64,14.3268387 49.6731613,0 32,0 Z M32,6.19354839 C46.2621935,6.19354839 57.8064516,17.7356129 57.8064516,32 C57.8064516,46.2621935 46.2643871,57.8064516 32,57.8064516 C17.7378065,57.8064516 6.19354839,46.2643871 6.19354839,32 C6.19354839,17.7378065 17.7356129,6.19354839 32,6.19354839 L32,6.19354839 Z M50.0908387,23.0021935 L47.1829677,20.0708387 C46.5807742,19.4637419 45.6003871,19.4597419 44.9932903,20.0620645 L26.7543226,38.1544516 L19.0392258,30.3767742 C18.4370323,29.7696774 17.4566452,29.7656774 16.8495484,30.367871 L13.9180645,33.2757419 C13.3109677,33.8779355 13.3069677,34.8583226 13.9092903,35.4655484 L25.6229677,47.2740645 C26.2251613,47.8811613 27.2055484,47.8851613 27.8126452,47.2828387 L50.0821935,25.192 C50.6891613,24.5896774 50.6930323,23.6092903 50.0908387,23.0021935 L50.0908387,23.0021935 Z" id="Shape"></path>
            </g>
        </g>
    </g>
</svg>